<svg xmlns="http://www.w3.org/2000/svg" fill="none" viewBox="0 0 128 128" width="128" height="128">
    <!-- Glowing background effect -->
    <filter id="glow" x="-30%" y="-30%" width="160%" height="160%">
        <feGaussianBlur stdDeviation="4" result="blur" />
        <feComposite in="SourceGraphic" in2="blur" operator="over" />
    </filter>
    
    <!-- Main logo shapes with enhancements -->
    <g filter="url(#glow)">
        <!-- Bottom rectangular shape (blue) -->
        <path d="M34 64c0-8.8 7.2-16 16-16h28c8.8 0 16 7.2 16 16v0c0 8.8-7.2 16-16 16H50c-8.8 0-16-7.2-16-16v0Z" fill="#5ab0f6">
            <animate attributeName="fill" values="#5ab0f6;#65bfff;#5ab0f6" dur="3s" repeatCount="indefinite" />
        </path>
        
        <!-- Upper right rectangular shape (purple) -->
        <path d="M50 28c0-8.8 7.2-16 16-16h12c8.8 0 16 7.2 16 16v0c0 8.8-7.2 16-16 16H66c-8.8 0-16-7.2-16-16v0Z" fill="#c678dd">
            <animate attributeName="fill" values="#c678dd;#d586e9;#c678dd" dur="3s" repeatCount="indefinite" />
        </path>
        
        <!-- Upper left rectangular shape (green) -->
        <path d="M34 28c0-8.8 7.2-16 16-16v0c8.8 0 16 7.2 16 16v16H50c-8.8 0-16-7.2-16-16v0Z" fill="#98c379">
            <animate attributeName="fill" values="#98c379;#a3d485;#98c379" dur="3s" repeatCount="indefinite" />
        </path>
    </g>
    
    <style>
        @media (prefers-color-scheme: dark) {
            #glow feGaussianBlur {
                stdDeviation: 6;
            }
        }
        @media (prefers-reduced-motion: reduce) {
            animate {
                animation-duration: 0s;
            }
        }
    </style>
</svg>
